<svg width="24.000000" height="24.000000" viewBox="0 0 24 24" fill="none" xmlns="http://www.w3.org/2000/svg" xmlns:xlink="http://www.w3.org/1999/xlink">
	<desc>
			Created with Pixso.
	</desc>
	<defs>
		<clipPath id="clip402_1153">
			<rect id="atom" width="24.000000" height="24.000000" fill="white" fill-opacity="0"/>
		</clipPath>
	</defs>
	<g clip-path="url(#clip402_1153)">
		<path id="Icon" d="M12 12L12.01 12M12 12.5C11.7239 12.5 11.5 12.2761 11.5 12C11.5 11.7238 11.7239 11.5 12 11.5C12.2761 11.5 12.5 11.7238 12.5 12C12.5 12.2761 12.2761 12.5 12 12.5ZM19.7783 19.7781C18.021 21.5355 13.1138 19.4777 8.81812 15.1819C4.52222 10.8861 2.4646 5.97913 4.22192 4.2218C5.97925 2.46448 10.8862 4.52222 15.1821 8.81799C19.4778 13.1138 21.5356 18.0208 19.7783 19.7781ZM4.22217 19.7781C5.97949 21.5355 10.8865 19.4777 15.1824 15.1819C19.478 10.8861 21.5359 5.97913 19.7786 4.2218C18.0212 2.46448 13.1143 4.52222 8.81836 8.81799C4.52271 13.1138 2.46484 18.0208 4.22217 19.7781Z" stroke="#000000" stroke-opacity="1.000000" stroke-width="2.000000" stroke-linejoin="round" stroke-linecap="round"/>
	</g>
</svg>
